<svg class="icon-block__img" xmlns="http://www.w3.org/2000/svg" width="42" height="44" viewBox="0 0 42 44" fill="none">
  <path d="M27.5339 42L17.6564 36.249M27.5339 42L40.4144 25.7619L40.49 5.03576L19.9872 2M27.5339 42L9.62236 31.5714L2 12.2976L19.9872 2M27.5339 42L27.5341 41.9998L17.6568 36.249M19.9872 2L19.9876 2.00009L17.6568 3.33446" stroke="white" stroke-width="3" />
  <path fill-rule="evenodd" clip-rule="evenodd" d="M19.8084 9.35791C19.8181 9.35807 19.8278 9.35829 19.8375 9.35858V9.35791H24.3048C26.3848 9.35791 27.9895 9.89909 29.1189 10.9814C30.2577 12.0544 30.8272 13.5838 30.8272 15.5697C30.8272 18.2991 29.8342 20.2097 27.8483 21.3015L31.4483 29.7156V29.9133H26.9871L23.8954 22.4027H21.8342V29.9133H17.6836V11.3652H17.6844C17.7278 10.2604 18.6283 9.37588 19.7394 9.35791H19.8084ZM24.1918 18.9438H21.8342V12.8167H24.2624C25.8719 12.8167 26.6766 13.8473 26.6766 15.9085C26.6766 16.8309 26.4695 17.5697 26.0554 18.125C25.6413 18.6709 25.0201 18.9438 24.1918 18.9438Z" fill="white" />
</svg>
