<svg
  class="icon-block__img"
  xmlns="http://www.w3.org/2000/svg"
  width="40"
  height="40"
  viewBox="0 0 40 40"
  fill="none"
>
  <path
    d="M21.667 18.3333L5.83371 34.1667M15.4253 13.1602L10.6339 11.5631C10.0821 11.3792 9.47428 11.4962 9.03025 11.8719L4.26832 15.9012C3.29344 16.7261 3.57041 18.296 4.76871 18.7375L9.28071 20.3998M19.4688 30.5876L21.1311 35.0995C21.5726 36.2979 23.1424 36.5748 23.9673 35.5999L27.9966 30.838C28.3724 30.394 28.4894 29.7862 28.3055 29.2344L26.7083 24.4429"
    stroke="white"
    stroke-width="3"
    stroke-linecap="round"
  />
  <path
    d="M23.364 5.89754C25.394 7.24455 27.3452 8.83259 29.1685 10.6559C31.0076 12.495 32.6073 14.4641 33.9617 16.513M32.2476 3.78463L24.0701 5.14754C23.1871 5.29471 22.3772 5.72872 21.7657 6.38245L10.7439 18.1644C7.88694 21.2183 7.96641 25.9876 10.9235 28.9447C13.8806 31.9018 18.6499 31.9812 21.7038 29.1243L33.4857 18.1025C34.1395 17.491 34.5735 16.6811 34.7206 15.7981L36.0835 7.62061C36.4596 5.36454 34.5036 3.40862 32.2476 3.78463Z"
    stroke="white"
    stroke-width="3"
    stroke-linecap="round"
  />
</svg>