<svg xmlns="http://www.w3.org/2000/svg" version="1.1" xmlns:xlink="http://www.w3.org/1999/xlink" xmlns:svgjs="http://svgjs.dev/svgjs" width="16" height="16"><svg width="16" height="16" viewBox="0 0 16 16" fill="none" xmlns="http://www.w3.org/2000/svg">
<path fill-rule="evenodd" clip-rule="evenodd" d="M3.41333 1.63094e-06C2.96497 -0.000436872 2.52091 0.0875523 2.10659 0.258933C1.69227 0.430314 1.31581 0.681721 0.998766 0.998766C0.681721 1.31581 0.430314 1.69227 0.258933 2.10659C0.0875523 2.52091 -0.000436872 2.96497 1.63094e-06 3.41333V16H12.5867C13.035 16.0004 13.4791 15.9124 13.8934 15.7411C14.3077 15.5697 14.6842 15.3183 15.0012 15.0012C15.3183 14.6842 15.5697 14.3077 15.7411 13.8934C15.9124 13.4791 16.0004 13.035 16 12.5867V1.63094e-06H3.41333ZM3.43333 4.92333C3.13374 4.92399 2.8407 4.83571 2.59132 4.66968C2.34194 4.50365 2.14746 4.26733 2.03251 3.99067C1.91755 3.71401 1.8873 3.40945 1.94559 3.11558C2.00387 2.82172 2.14807 2.55176 2.35992 2.33992C2.57176 2.12807 2.84172 1.98387 3.13558 1.92559C3.42945 1.8673 3.73401 1.89755 4.01067 2.01251C4.28733 2.12746 4.52365 2.32194 4.68968 2.57132C4.85571 2.8207 4.94399 3.11374 4.94333 3.41333C4.94333 3.81381 4.78425 4.19789 4.50107 4.48107C4.21789 4.76425 3.83381 4.92333 3.43333 4.92333ZM8.02 14.1C7.72069 14.1 7.4281 14.0112 7.17924 13.845C6.93037 13.6787 6.7364 13.4423 6.62186 13.1658C6.50732 12.8893 6.47735 12.585 6.53575 12.2914C6.59414 11.9979 6.73827 11.7282 6.94991 11.5166C7.16156 11.3049 7.43121 11.1608 7.72476 11.1024C8.01832 11.044 8.3226 11.074 8.59913 11.1885C8.87565 11.3031 9.112 11.497 9.27829 11.7459C9.44458 11.9948 9.53333 12.2874 9.53333 12.5867C9.53377 12.7855 9.49493 12.9825 9.41903 13.1663C9.34314 13.3501 9.23168 13.5171 9.09107 13.6577C8.95046 13.7983 8.78345 13.9098 8.59965 13.9857C8.41584 14.0616 8.21886 14.1004 8.02 14.1ZM8.02 9.51C7.72149 9.50934 7.42988 9.42022 7.182 9.2539C6.93412 9.08758 6.7411 8.85152 6.62732 8.57555C6.51354 8.29957 6.48412 7.99607 6.54276 7.70338C6.6014 7.41068 6.74547 7.14194 6.95678 6.9311C7.16809 6.72025 7.43715 6.57677 7.72997 6.51878C8.02279 6.46078 8.32623 6.49088 8.60195 6.60526C8.87768 6.71965 9.11331 6.91319 9.27908 7.16144C9.44486 7.40968 9.53333 7.70149 9.53333 8C9.53333 8.19858 9.49417 8.3952 9.41807 8.57862C9.34198 8.76204 9.23046 8.92865 9.08989 9.06891C8.94932 9.20917 8.78246 9.32033 8.59888 9.39602C8.41529 9.47171 8.21858 9.51044 8.02 9.51ZM8.02 4.92333C7.72055 4.92333 7.42783 4.83449 7.17889 4.66806C6.92995 4.50162 6.73599 4.26508 6.62155 3.98836C6.5071 3.71164 6.47733 3.40718 6.53599 3.11354C6.59466 2.81989 6.73912 2.55024 6.9511 2.33873C7.16307 2.12722 7.43304 1.98336 7.72681 1.92534C8.02059 1.86733 8.32498 1.89777 8.60144 2.01282C8.87791 2.12787 9.11403 2.32236 9.27991 2.57167C9.4458 2.82097 9.53399 3.11388 9.53333 3.41333C9.53333 3.61191 9.49417 3.80854 9.41807 3.99196C9.34198 4.17538 9.23046 4.34199 9.08989 4.48225C8.94932 4.62251 8.78246 4.73366 8.59888 4.80935C8.41529 4.88504 8.21858 4.92377 8.02 4.92333ZM12.61 14.1C12.3105 14.1007 12.0176 14.0125 11.7683 13.8466C11.519 13.6807 11.3245 13.4446 11.2095 13.1681C11.0944 12.8916 11.064 12.5873 11.122 12.2935C11.18 11.9997 11.3239 11.7297 11.5354 11.5178C11.7469 11.3058 12.0166 11.1613 12.3102 11.1027C12.6039 11.044 12.9083 11.0738 13.185 11.1882C13.4617 11.3027 13.6983 11.4966 13.8647 11.7456C14.0312 11.9945 14.12 12.2872 14.12 12.5867C14.12 12.9874 13.961 13.3719 13.6779 13.6556C13.3948 13.9393 13.0108 14.0991 12.61 14.1ZM12.61 4.92333C12.3104 4.92399 12.0174 4.83571 11.768 4.66968C11.5186 4.50365 11.3241 4.26733 11.2092 3.99067C11.0942 3.71401 11.064 3.40945 11.1223 3.11558C11.1805 2.82172 11.3247 2.55176 11.5366 2.33992C11.7484 2.12807 12.0184 1.98387 12.3122 1.92559C12.6061 1.8673 12.9107 1.89755 13.1873 2.01251C13.464 2.12746 13.7003 2.32194 13.8663 2.57132C14.0324 2.8207 14.1207 3.11374 14.12 3.41333C14.12 3.61163 14.0809 3.80798 14.0051 3.99119C13.9292 4.17439 13.8179 4.34085 13.6777 4.48107C13.5375 4.62128 13.3711 4.73251 13.1879 4.80839C13.0047 4.88428 12.8083 4.92333 12.61 4.92333Z" fill="#507BCE"></path>
</svg><style>@media (prefers-color-scheme: light) { :root { filter: none; } }
@media (prefers-color-scheme: dark) { :root { filter: none; } }
</style></svg>