<svg class="icon-block__img" xmlns="http://www.w3.org/2000/svg" width="42" height="42" viewBox="0 0 42 42" fill="none">
  <path d="M39.7148 5.34717C39.7148 3.69031 38.3717 2.34717 36.7148 2.34717H13.2412C11.5843 2.34717 10.2412 3.69031 10.2412 5.34717V22.5051C10.2412 24.1619 11.5843 25.5051 13.2412 25.5051H39.7148V5.34717Z" stroke="white" stroke-width="3" />
  <path d="M1.82031 15.8735C1.82031 14.2167 3.16346 12.8735 4.82031 12.8735H28.294C29.9509 12.8735 31.294 14.2167 31.294 15.8735V36.0314H4.82031C3.16346 36.0314 1.82031 34.6883 1.82031 33.0314V15.8735Z" stroke="white" stroke-width="3" />
  <path d="M36.9688 26.9692H41.1793V31.1798L36.9688 26.9692Z" fill="white" />
  <path d="M28.6016 37.4424H32.8121V41.6529L28.6016 37.4424Z" fill="white" />
</svg>
