<svg class="icon-block__img" xmlns="http://www.w3.org/2000/svg" width="44" height="44" viewBox="0 0 44 44" fill="none">
  <path d="M4.27134 31.2858L2.06965 39.5026C1.6747 40.9766 3.02348 42.3254 4.49744 41.9304L12.7143 39.7287M12.7338 39.7283C15.5039 41.1791 18.6561 41.9998 22 41.9998C33.0457 41.9998 42 33.0454 42 21.9998C42 10.9541 33.0457 1.99976 22 1.99976C10.9543 1.99976 2 10.9541 2 21.9998C2 25.347 2.82227 28.5021 4.27583 31.2743M21.3115 15.8974C19.1814 13.6635 15.7277 13.6635 13.5976 15.8974C11.4675 18.1314 11.4675 21.7533 13.5976 23.9872L20.6947 31.4302C21.4188 32.1896 22.5812 32.1896 23.3053 31.4302L30.4024 23.9872C32.5325 21.7533 32.5325 18.1314 30.4024 15.8974C28.2723 13.6635 24.8186 13.6635 22.6885 15.8974L22 16.6195L21.3115 15.8974Z" stroke="white" stroke-width="3" stroke-linecap="round" stroke-linejoin="round" />
</svg>
