<svg class="icon-block__img" xmlns="http://www.w3.org/2000/svg" width="41" height="45" viewBox="0 0 41 45" fill="none">
  <path d="M20.5145 2.32812L25.3258 5.1059V10.6615L20.5145 13.4392L15.7033 10.6615V5.1059L20.5145 2.32812Z" stroke="white" stroke-width="3" />
  <path d="M20.5145 31.2168L25.3258 33.9946V39.5501L20.5145 42.3279L15.7033 39.5501V33.9946L20.5145 31.2168Z" stroke="white" stroke-width="3" />
  <path d="M37.8227 12.3288L37.8227 17.8844L33.0114 20.6622L28.2002 17.8844L28.2002 12.3288L33.0114 9.55105L37.8227 12.3288Z" stroke="white" stroke-width="3" />
  <path d="M12.8051 26.7732L12.8051 32.3287L7.99387 35.1065L3.18262 32.3287L3.18262 26.7732L7.99387 23.9954L12.8051 26.7732Z" stroke="white" stroke-width="3" />
  <path d="M37.8179 32.3291L33.0067 35.1069L28.1954 32.3291L28.1954 26.7735L33.0067 23.9957L37.8179 26.7735L37.8179 32.3291Z" stroke="white" stroke-width="3" />
  <path d="M12.8003 17.8845L7.98909 20.6623L3.17784 17.8845L3.17784 12.3289L7.9891 9.55116L12.8003 12.3289L12.8003 17.8845Z" stroke="white" stroke-width="3" />
  <path d="M20.5143 15.6611L26.2878 18.9945V25.6611L20.5143 28.9945L14.7408 25.6611V18.9945L20.5143 15.6611Z" stroke="white" stroke-width="3" />
</svg>
